<?xml version="1.0" encoding="UTF-8"?>
<svg viewBox="0 0 42 43" xmlns="http://www.w3.org/2000/svg" xmlns:xlink="http://www.w3.org/1999/xlink">
 <defs>
  <filter id="ag" x="-.19725" y="-.17069" width="1.3945" height="1.3414"/>
  <filter id="am" x="-.14551" y="-.09151" width="1.291" height="1.183"/>
  <filter id="an" x="-.18815" y="-.13053" width="1.3763" height="1.2611"/>
  <filter id="ao" x="-.20173" y="-.13721" width="1.4035" height="1.2744"/>
  <filter id="al" x="-.21133" y="-.18114" width="1.4227" height="1.3623"/>
  <filter id="ak" x="-.15304" y="-.16138" width="1.3061" height="1.3228"/>
  <filter id="ai" x="-.317" y="-.19296" width="1.634" height="1.3859"/>
  <filter id="ah" x="-.14793" y="-.08143" width="1.2959" height="1.1629"/>
  <filter id="af" x="-.20642" y="-.12328" width="1.4128" height="1.2466"/>
  <filter id="z" x="-.22501" y="-.04719" width="1.45" height="1.0944"/>
  <filter id="au" x="-.33166" y="-.18656" width="1.6633" height="1.3731"/>
  <filter id="at" x="-.43739" y="-.11264" width="1.8748" height="1.2253"/>
  <filter id="as" x="-.10205" y="-.09632" width="1.2041" height="1.1926"/>
  <filter id="ar" x="-.08407" y="-.30626" width="1.1682" height="1.6125"/>
  <filter id="ay" x="-.1066" y="-.30614" width="1.2132" height="1.6123"/>
  <filter id="u" x="-.39574" y="-.07557" width="1.7915" height="1.1511"/>
  <filter id="ap" x="-.08844" y="-.12702" width="1.1769" height="1.254"/>
  <filter id="aq" x="-.08473" y="-.24946" width="1.1695" height="1.4989"/>
  <filter id="y" x="-.14385" y="-.15389" width="1.2877" height="1.3078"/>
  <filter id="n" x="-.15252" y="-.45941" width="1.305" height="1.9188"/>
  <filter id="bc" x="-.69211" y="-.16358" width="2.3842" height="1.3272"/>
  <filter id="ax" x="-.22879" y="-.16054" width="1.4576" height="1.3211"/>
  <filter id="aw" x="-.207" y="-.3339" width="1.414" height="1.6678"/>
  <filter id="av" x="-.15525" y="-.3918" width="1.3105" height="1.7836"/>
  <filter id="k" x="-.378" y="-.1932" width="1.756" height="1.3864"/>
  <filter id="aj" x="-.40857" y="-.20075" width="1.8171" height="1.4015"/>
  <linearGradient id="b">
   <stop stop-color="#ffd73b" offset="0"/>
   <stop stop-color="#ee8400" offset="1"/>
  </linearGradient>
  <linearGradient id="c">
   <stop stop-color="#ff5959" offset="0"/>
   <stop stop-color="#d90000" offset="1"/>
  </linearGradient>
  <linearGradient id="a">
   <stop stop-color="#d700d7" offset="0"/>
   <stop stop-color="#6e006e" offset="1"/>
  </linearGradient>
  <linearGradient id="bb" x1=".5" x2=".3996" y1=".49998" y2="-.2495" xlink:href="#a"/>
  <linearGradient id="ba" x1=".65381" x2=".49339" y1=".68408" y2="-.105" xlink:href="#a"/>
  <linearGradient id="s" x2="1.2707" y1=".34455" y2=".49998" xlink:href="#a"/>
  <linearGradient id="az" x1=".92714" x2=".46357" y1=".69619" y2=".70296" xlink:href="#a"/>
  <linearGradient id="g" x1=".61886" x2="-.17891" y1=".71829" y2=".22392" xlink:href="#a"/>
  <linearGradient id="h" x1=".38819" x2=".27671" y1=".76906" y2="1e-5" xlink:href="#a"/>
  <linearGradient id="f" x2="0" y1=".51969" y2="-.77166" xlink:href="#a"/>
  <linearGradient id="e" x2="0" y1=".50825" y2=".0165" xlink:href="#a"/>
  <linearGradient id="d" x1=".56686" x2=".13222" y1=".5" y2=".25777" xlink:href="#a"/>
  <linearGradient id="t" x1=".4829" x2=".3389" y1=".43963" y2="-.51422" xlink:href="#b"/>
  <linearGradient id="ac" x1=".5107" x2="-.08056" y1=".48547" y2="-.44545" xlink:href="#b"/>
  <linearGradient id="ad" x1=".39111" x2="-.15444" y1=".68234" y2="-.22717" xlink:href="#b"/>
  <linearGradient id="ab" x1=".62203" x2="-.14227" y1=".68187" y2=".1914" xlink:href="#b"/>
  <linearGradient id="aa" x1=".24511" x2=".15144" y1=".41714" y2="-.42717" xlink:href="#b"/>
  <linearGradient id="x" x1=".62791" x2="-.19208" y1=".93474" y2="-.40477" xlink:href="#b"/>
  <linearGradient id="w" x1=".48569" x2=".07541" y1=".48018" y2="-.29668" xlink:href="#b"/>
  <linearGradient id="ae" x1=".38559" x2="-.24817" y1=".94076" y2="-.15747" xlink:href="#b"/>
  <linearGradient id="v" x1=".32402" x2="-.62939" y1=".99341" y2="-.4061" xlink:href="#b"/>
  <linearGradient id="i" x2="0" y1="1" y2="-.46103" xlink:href="#c"/>
  <linearGradient id="r" x2="0" y1=".53236" y2="-.76664" xlink:href="#c"/>
  <linearGradient id="q" x1=".5" x2="0" y1=".50203" y2=".00403" xlink:href="#c"/>
  <linearGradient id="p" x2="0" y1="1" y2="-.00014" xlink:href="#c"/>
  <linearGradient id="o" x1=".5" x2="0" y1=".60903" y2="-.35809" xlink:href="#c"/>
  <linearGradient id="m" x1=".7645" x2=".5" y1=".99994" y2="-.35253" xlink:href="#c"/>
  <linearGradient id="l" x2="0" y1=".49996" y2="-2e-5" xlink:href="#c"/>
  <linearGradient id="j" x2=".45256" y1=".50001" y2="3e-5" xlink:href="#c"/>
 </defs>
 <path transform="matrix(1.41 0 0 1.41 -12.32 -13.089)" d="m14.73813,14.18683c-1.10742-.75037-2.5334-.68723-4.11638-.77182 1.47226.29776 2.5372.71794 3.82235,1.43338-1.73778-1.00729-.62688-.94073.29403-.66156z" fill="#fff" filter="url(#ay)"/>
 <path transform="translate(-2.9122 -1005.4)" d="m26.475 1025.7c3.081 2.4496 4.2342 6.2755 4.6579 8.623 0.58262 3.2279 1.0933 7.4134 1.3033 13.006l0.06262 0.03601c1.2918-5.1067 0.67621-9.7836 0.04406-13.307s-1.9639-6.7758-6.0366-8.3488l-0.0313-0.01391h-1e-5v0.00415z" fill="url(#az)"/>
 <path transform="translate(-2.9122 -1005.4)" d="m25.988 1023.5c4.4937-2.4874 8.1258-1.9245 11.176-1.076s5.8488 2.3877 7.7576 6.7781l0.07814-0.11413c0.26822-4.6279-3.582-7.9325-7.1282-8.9186-4.5268-0.99829-9.4066-0.1026-11.863 3.3408l-0.02052-0.01398 1e-5 0.00385z" fill="url(#ba)"/>
 <path transform="translate(-2.9122 -1005.4)" d="m25.314 1018.6 0.22835 0.13952c2.9478-1.644 5.1493-3.6354 8.2758-3.909 3.5006-0.02503 7.4597 2.2693 9.3644 5.3943l0.1973-0.08301c-2.2228-3.982-5.0188-7.4018-9.782-7.4466-4.6457 0.6615-5.8972 3.4235-8.2838 5.905v-1.8e-4z" fill="url(#bb)"/>
 <path transform="translate(-2.9122 -1005.4)" d="m23.769 1018.9-0.04103 0.03101c-0.7067-5.6869 0.21564-10.189 2.6878-13.615l-0.09561 0.01898c-5.1081 3.6248-5.2526 8.3967-2.5512 13.566v-6.1e-4z" fill="url(#d)"/>
 <path transform="translate(-2.9122 -1005.4)" d="m4.7625 1011.2 0.06208-0.18872c7.8316-0.1723 13.097 3.4612 13.439 9.9141l0.02105-0.052c-3.1461-3.8456-5.1058-7.575-13.522-9.6734z" fill="url(#e)"/>
 <path transform="translate(-2.9122 -1005.4)" d="m11.478 1021.3c-2.2765 0.13959-4.7678 0.98523-7.4907 2.8641h0.06762c5.3366-1.6738 9.1224-2.1018 13.434-1.366l0.2023-0.09302c-1.8966-0.96527-3.9363-1.5489-6.2129-1.41v0.00488z" fill="url(#f)"/>
 <path transform="translate(-2.9122 -1005.4)" d="m22.299 1027.8c-2.6161 1.5605-3.6678 5.5226-1.9723 11.353l0.06262-0.31091c0.55883-6.1846 1.261-8.7186 1.8842-11.104l0.02551 0.06201z" fill="url(#g)"/>
 <path transform="translate(-2.9122 -1005.4)" d="m18.704 1025.4c-8.3684 0.54493-12.159 6.7098-11.897 11.985l0.06262-0.10266c3.3167-6.0166 4.755-8.6757 11.7-11.715l0.13469-0.16614v-0.0011z" fill="url(#h)"/>
 <path transform="translate(-2.9122 -1005.4)" d="m10.397 1017.5 0.02577 0.1297c1.6492 0.82282 3.5738 1.4076 5.4871 3.1619l0.02105-0.08905c-1.158-3.2652-2.4711-3.532-5.5339-3.2035l1e-5 9.2e-4z" fill="url(#i)"/>
 <path transform="translate(-2.9122 -1005.4)" d="m18.935 1013.3-0.07814 0.1142c0.14004 1.6026 1.3987 3.5366 1.8842 5.6867l0.16627-0.05201c0.42063-1.8591 0.27201-4.0398-1.9723-5.749v1.2e-4z" fill="url(#j)"/>
 <path transform="matrix(1.41 0 0 1.41 -12.32 -13.089)" d="m20.2144,15.50995 .66156,1.65391c-.15961-.50747-.14571-.87614.18376-.99234l-.84532-.66157z" fill="#fff" fill-opacity=".7857" filter="url(#k)"/>
 <path transform="translate(-2.9122 -1005.4)" d="m27.05 1013.3c-1.3301 0.37658-2.2006 0.91589-1.9723 3.6259l0.12996 0.02698c0.66679-1.1164 1.4608-2.052 1.8842-3.5689l-0.04184-0.08301v-9.7e-4z" fill="url(#l)"/>
 <path transform="translate(-2.9122 -1005.4)" d="m25.64 1021.9 0.09366-0.05603c1.212-1.3876 2.3478-1.9322 3.2371-2.3771s2.4521-1.2409 2.9079-0.78552l0.08839-0.13959c-1.3971-0.99487-1.9526-1.121-3.6132-0.30798-1.6483 1.0976-2.2475 1.8192-2.7139 3.6665v-3.1e-4z" fill="url(#m)"/>
 <path transform="translate(-2.9122 -1005.4)" d="m26.925 1024.7 0.02768 0.11706c1.8151 0.06507 3.8673 0.43079 5.4991 1.745l0.02385-0.10706c-0.81726-2.455-3.3859-3.2273-5.5506-1.7542l-2e-5 2.5e-4 4e-5 -0.0011z" fill="url(#o)"/>
 <path transform="translate(-2.9122 -1005.4)" d="m24.141 1027.8-0.14518 0.15284c-0.03676 1.8263-0.18431 3.305 0.14864 4.8414l0.02022-0.01599c1.119-1.5956 1.1125-3.0446-0.02365-4.9782l-3e-5 -1.3e-4z" fill="url(#p)"/>
 <path transform="translate(-2.9122 -1005.4)" d="m17.206 1027.9c-0.99404 0.77746-1.0597 1.999-1.1614 3.7374l0.06262 0.08899c0.64899-1.1412 1.1609-2.5212 1.8842-3.0869s1.6964-1.3113 2.2109-1.3113v-0.16626c-1.1654-0.02002-2.0373 0.17212-2.9963 0.73816v-1.2e-4z" fill="url(#q)"/>
 <path transform="translate(-2.9122 -1005.4)" d="m11.8 1025.6c0.59309-0.42114 2.1614-0.92932 3.0748-1.097s1.9127-0.41602 3.0741-0.19202l0.15264 0.10254c-0.99713-0.79675-2.5236-1.1266-3.6802-0.91388-1.1117 0.30908-1.8309 1.3295-2.6739 2.0685l0.05266 0.03101 1e-5 8.5e-4z" fill="url(#r)"/>
 <path transform="translate(-2.9122 -1005.4)" d="m25.444 1026.6 0.03853 0.04394c2.7364 3.1918 2.7255 7.6099 1.4593 11.272l0.02631-0.13684c3.1133-3.7111 3.1049-7.8094-1.5242-11.179l1e-5 -2.4e-4z" fill="url(#s)"/>
 <path transform="translate(-2.9122 -1005.4)" d="m7.4432 1015.9-1.2209-1.1969-1.7096-0.05103 0.76108-1.5311-0.4804-1.6416 1.6913 0.25079 1.4127-0.96429 0.2842 1.686 1.3535 1.0456-1.5156 0.79145-0.57619 1.6103 1e-5 7.9e-4z" fill="url(#t)" fill-rule="evenodd"/>
 <path transform="matrix(1.41 0 0 1.41 -12.32 -13.089)" d="m23.449 11.798c-1.0656 1.7441-0.78771 3.7761-0.51455 5.807-0.2812-0.04326-1.4329-4.6252 0.51455-5.807z" fill="#fff" filter="url(#u)"/>
 <path transform="translate(-2.9122 -1005.4)" d="m22.637 1014.5-1.9977-0.50623-1.8113 0.98444-0.13587-2.0563-1.496-1.4184 1.9137-0.76465 0.88673-1.8613 1.3186 1.5838 2.0441 0.26831-1.0988 1.7435 0.37659 2.0269z" fill="url(#v)" fill-rule="evenodd"/>
 <path transform="translate(-2.9122 -1005.4)" d="m39.379 1023-2.0539-1.1251-2.2729 0.56781 0.43545-2.3011-1.2425-1.9861 2.323-0.29694 1.505-1.7956 1.0003 2.1176 2.1726 0.87659-1.7048 1.6057-0.16226 2.3371z" fill="url(#w)" fill-rule="evenodd"/>
 <path transform="translate(-2.9122 -1005.4)" d="m35.635 1029-1.9082-0.30884-1.6116 1.0686-0.29586-1.9103-1.5144-1.2026 1.7254-0.87171 0.67567-1.8118 1.3622 1.3716 1.932 0.08288-0.88348 1.7196 0.51835 1.8629v-3.6e-4z" fill="url(#x)" fill-rule="evenodd"/>
 <path transform="matrix(1.41 0 0 1.41 -12.32 -13.089)" d="m27.712 26.205c1.2807 1.5536 1.9211 8.1731 1.8744 9.2986 0.24555-1.1147-0.03693-7.9388-1.8744-9.2986z" fill="#fff" filter="url(#z)"/>
 <path transform="translate(-2.9122 -1005.4)" d="m31.283 1039.5-1.5413-1.0345-1.8349 0.28637 0.50784-1.7858-0.83931-1.6566 1.8551-0.07007 1.3162-1.3101 0.6387 1.743 1.6528 0.84692-1.4604 1.1462-0.29471 1.8334-1e-5 0.0011z" fill="url(#aa)" fill-rule="evenodd"/>
 <path transform="translate(-2.9122 -1005.4)" d="m22.887 1039.8-1.8562 0.03101-1.3427 1.2831-0.60291-1.7559-1.6351-0.88037 1.4835-1.1161 0.33217-1.8272 1.5198 1.066 1.8404-0.24866-0.54427 1.7748 0.80522 1.6735-1e-5 -2.5e-4z" fill="url(#ab)" fill-rule="evenodd"/>
 <path transform="translate(-2.9122 -1005.4)" d="m8.6534 1030.7-2.1281-0.6112-1.9786 0.99572-0.0761-2.2129-1.5584-1.5741 2.081-0.75623 1.0154-1.9684 1.3622 1.7452 2.186 0.35766-1.2391 1.8348 0.33558 2.1893z" fill="url(#ac)" fill-rule="evenodd"/>
 <path transform="translate(-2.9122 -1005.4)" d="m10.615 1043.3-2.1265-1.7026-2.7181 0.193 0.96198-2.5481-1.0236-2.5255 2.721 0.12829 2.0855-1.754 0.71968 2.6273 2.3125 1.4414-2.2762 1.4961-0.65626 2.6449v-7.3e-4z" fill="url(#ad)" fill-rule="evenodd"/>
 <path transform="translate(-2.9122 -1005.4)" d="m29.50941,1010.68323-.98413-.62622-1.14818.20813 .29149-1.12958-.55275-1.02753 1.16426-.07202 .80656-.8432 .42809,1.08514 1.05121.5066-.89969.74231-.15686,1.15618v.00019z" fill="url(#ae)" fill-rule="evenodd"/>
 <path transform="matrix(1.41 0 0 1.41 -12.32 -13.089)" d="m11.30505,13.92893c-.10396,0-1.09153-.20791-1.09153-.20791l.28588.98757-.31186.88361 .52257-.77778c-.23111-.60747.06647-.83044.59494-.88549z" fill="#fff" fill-opacity=".8661" filter="url(#af)"/>
 <path transform="matrix(1.41 0 0 1.41 -12.32 -13.089)" d="m10.13556,24.5063-1.16949.38983 1.01356.96157c-.62402-.76593-.23486-1.05905.15593-1.3514z" fill="#fff" fill-opacity=".8661" filter="url(#ag)"/>
 <path transform="matrix(1.41 0 0 1.41 -12.32 -13.089)" d="m20.73891,12.49956-.33785.62372-1.22146.51978 .88361.85762 .02599.83164c0,0 .28594-.9099.18192-.93559-.76705-.18946-.73757-1.16064.31186-1.03955l.15593-.85762z" fill="#fff" fill-opacity=".8661" filter="url(#ah)"/>
 <path transform="matrix(1.41 0 0 1.41 -12.32 -13.089)" d="m26.79426,11.33008-.72768.05198 .36384.49378-.2339.64971c.11262-.24633.22524-.49661.33785-.6757-.32562-.48245.07179-.42261.25989-.51977z" fill="#fff" fill-opacity=".8661" filter="url(#ai)"/>
 <path transform="matrix(1.41 0 0 1.41 -12.32 -13.089)" d="m32.642 18.269-1.5073 0.20791 0.90961 1.2215c-0.80425-1.0499 6e-3 -1.1772 0.59773-1.4294z" fill="#fff" fill-opacity=".8661" filter="url(#ak)"/>
 <path transform="matrix(1.41 0 0 1.41 -12.32 -13.089)" d="m29.52306,23.85658-1.09152.49378 .96158.77966c-.71501-.51369-.3079-.89537.12994-1.27344z" fill="#fff" fill-opacity=".8661" filter="url(#al)"/>
 <path transform="matrix(1.41 0 0 1.41 -12.32 -13.089)" d="m12.552 31.783-1.5853-0.12995 0.59774 1.6893-0.10395 0.83164 0.38983-0.85762c-1.1487-1.5864 0.11062-1.3 0.70169-1.5333z" fill="#fff" fill-opacity=".8661" filter="url(#am)"/>
 <path transform="matrix(1.41 0 0 1.41 -12.32 -13.089)" d="m20.34908,31.65316-.05198.28588-1.01355.77966 1.11751.70169c0,0-1.11751-.93559.07797-1.40339 .10823-.04235-.10396-.31186-.12995-.36384z" fill="#fff" fill-opacity=".8661" filter="url(#an)"/>
 <path transform="matrix(1.41 0 0 1.41 -12.32 -13.089)" d="m27.57392,30.63961c-.10396-.05198-1.1435.02599-1.1435.02599l.57175,1.06553-.20791.57175 .36384-.62373c-.52768-.63206.01147-.80692.41582-1.03954z" fill="#fff" fill-opacity=".8661" filter="url(#ao)"/>
 <path transform="matrix(1.41 0 0 1.41 -12.32 -13.089)" d="m25.25 18.119c2.0949-2.5482 3.5651-3.2956 4.9617-3.4548-1.7832 0.56996-3.3692 2.0268-4.9617 3.4548z" fill="#fff" filter="url(#ap)"/>
 <path transform="matrix(1.41 0 0 1.41 -12.32 -13.089)" d="m25.911 21.427c-0.03206-0.33936 5.0818-2.0358 5.1455-1.6539 0.44212-0.29474-3.6173-0.03867-5.1455 1.6539z" fill="#fff" filter="url(#aq)"/>
 <path transform="matrix(1.41 0 0 1.41 -12.32 -13.089)" d="m10.548 22.126c1.9788-0.85952 3.6276-1.1416 5.219-1.3231 0.04332-0.0361-2.3879-0.61957-5.219 1.3231z" fill="#fff" filter="url(#ar)"/>
 <path transform="matrix(1.41 0 0 1.41 -12.32 -13.089)" d="m12.055 29.109c0.12811-0.77709 4.2582-4.9033 4.3002-4.4839 0-0.49254-3.4548 1.6064-4.3002 4.4839z" fill="#fff" filter="url(#as)"/>
 <path transform="matrix(1.41 0 0 1.41 -12.32 -13.089)" d="m21.685 26.389c-0.51248 1.244-0.76049 2.5541-0.88208 3.8959-0.15039-0.02149-0.38488-2.7537 0.88208-3.8959z" fill="#fff" filter="url(#at)"/>
 <path transform="matrix(1.41 0 0 1.41 -12.32 -13.089)" d="m26.79326,27.01378c-.07351-.14701-1.32312-1.94793-1.32312-1.94793 .36119.80646.79858,1.63832.88208,2.35222-.04716-.84673.2023-.60586.44104-.40429z" fill="#fff" filter="url(#au)"/>
 <path transform="matrix(1.41 0 0 1.41 -12.32 -13.089)" d="m16.35528,18.22971c-.73507-.33078-2.05819-.25727-2.05819-.25727 .69739.49443 1.49713.3912 1.5804.80857-.03176-.23835-.33334-.55903.47779-.5513z" fill="#fff" fill-opacity=".7857" filter="url(#av)"/>
 <path transform="matrix(1.41 0 0 1.41 -12.32 -13.089)" d="m16.90659,22.27259c-.34979-.02874-.85235.40083-1.39664.95559 .51455-.15927.99235-.46555 1.54365-.4778-.81339.03183-.48189-.22256-.14701-.47779z" fill="#fff" fill-opacity=".7857" filter="url(#aw)"/>
 <path transform="matrix(1.41 0 0 1.41 -12.32 -13.089)" d="m18.119 27.161c0.15821-0.46975 1.3285-2.2206 1.3966-1.9479-0.11124-0.20023-1.2334 0.28648-1.3966 1.9479z" fill="#fff" fill-opacity=".7857" filter="url(#ax)"/>
 <path transform="matrix(1.41 0 0 1.41 -12.32 -13.089)" d="m23.85299,27.38132c-.26609-.93425-.05282-2.04036 0-1.94794l.33078.88209c-.32719-.07857-.27719.59723-.33078,1.06585z" fill="#fff" fill-opacity=".7857" filter="url(#bc)"/>
 <path transform="matrix(1.41 0 0 1.41 -12.32 -13.089)" d="m28.07963,22.67688c-.52944-.17584-1.53024-.0035-2.09494.29402 .80258-.05526 1.49872-.0041 1.91117.33079-.46307-.4049-.11286-.50481.18377-.62481z" fill="#fff" fill-opacity=".7857" filter="url(#n)"/>
 <path transform="matrix(1.41 0 0 1.41 -12.32 -13.089)" d="m25.029 20.619c0.64085-0.81324 1.1924-1.8052 2.2052-1.8744 0.21592-0.64774-1.8161 0.33949-2.2052 1.8744z" fill="#fff" fill-opacity=".7857" filter="url(#y)"/>
 <path transform="matrix(1.41 0 0 1.41 -12.32 -13.089)" d="m24.62481,16.98009c.02114-1.1617.40017-1.24972.69831-1.5804-.02542-.05084-1.08182.0048-.69831,1.5804z" fill="#fff" fill-opacity=".7857" filter="url(#aj)"/>
</svg>
